# Blender v2.90.1 OBJ File: ''
# www.blender.org
mtllib CornerSlope.mtl
o Cube_Cube.005
v -0.500000 -0.500000 0.500000
v -0.500000 0.500000 0.500000
v -0.500000 -0.500000 -0.500000
v -0.500000 0.500000 -0.500000
v 0.500000 -0.500000 0.500000
v 0.500000 -0.500000 -0.500000
v 0.500000 0.500000 -0.500000
vt 0.125000 0.500000
vt 0.375000 0.500000
vt 0.375000 0.750000
vt 0.125000 0.750000
vt 0.000000 0.000000
vt 0.000000 0.000000
vt 0.000000 0.000000
vn 0.0000 -1.0000 0.0000
vn 0.0000 0.0000 -1.0000
vn -1.0000 0.0000 0.0000
vn 0.0000 0.0000 1.0000
vn 1.0000 0.0000 0.0000
vn 0.0000 0.7071 0.7071
vn 0.7071 0.7071 0.0000
usemtl None
s off
f 3/1/1 6/2/1 5/3/1 1/4/1
f 3/1/2 4/5/2 7/6/2 6/2/2
f 2/7/3 4/5/3 3/1/3 1/4/3
f 2/7/4 1/4/4 5/3/4
f 6/2/5 7/6/5 5/3/5
f 7/6/6 4/5/6 5/3/6
f 4/5/7 2/7/7 5/3/7
