# Blender v2.90.1 OBJ File: ''
# www.blender.org
mtllib Pyramid.mtl
o Cone_Cone.003
v -0.353553 -0.500000 -0.353553
v 0.353553 -0.500000 -0.353553
v 0.353553 -0.500000 0.353553
v -0.353553 -0.500000 0.353553
v -0.000000 0.500000 -0.000000
vt 0.250000 0.490000
vt 0.250000 0.250000
vt 0.490000 0.250000
vt 0.250000 0.010000
vt 0.750000 0.490000
vt 0.990000 0.250000
vt 0.750000 0.010000
vt 0.510000 0.250000
vt 0.010000 0.250000
vn 0.0000 0.3333 -0.9428
vn 0.9428 0.3333 0.0000
vn 0.0000 -1.0000 0.0000
vn -0.0000 0.3333 0.9428
vn -0.9428 0.3333 -0.0000
usemtl None
s 1
f 1/1/1 5/2/1 2/3/1
f 2/3/2 5/2/2 3/4/2
f 1/5/3 2/6/3 3/7/3 4/8/3
f 3/4/4 5/2/4 4/9/4
f 4/9/5 5/2/5 1/1/5
