# Blender v2.90.1 OBJ File: ''
# www.blender.org
mtllib Slope.mtl
o Cube_Cube.004
v -0.500000 -0.166667 0.833333
v -0.500000 0.833333 -0.166666
v -0.500000 -0.166667 -0.166667
v 0.500000 0.833333 -0.166667
v 0.500000 -0.166667 -0.166667
v 0.500000 -0.166667 0.833333
vt 0.625000 0.000000
vt 0.375000 0.250000
vt 0.625000 0.250000
vt 0.375000 0.500000
vt 0.625000 0.500000
vt 0.375000 0.750000
vt 0.125000 0.500000
vt 0.125000 0.750000
vt 0.625000 0.750000
vt 0.875000 0.750000
vt 0.875000 0.500000
vn -1.0000 -0.0000 0.0000
vn -0.0000 0.0000 -1.0000
vn 1.0000 -0.0000 -0.0000
vn 0.0000 0.7071 0.7071
vn 0.0000 -1.0000 0.0000
usemtl None.002
s 1
f 1/1/1 2/2/1 3/3/1
f 2/2/2 4/4/2 5/5/2 3/3/2
f 4/4/3 6/6/3 5/5/3
f 2/7/4 1/8/4 6/6/4 4/4/4
f 5/5/5 6/9/5 1/10/5 3/11/5
